<svg width="350" height="350" viewBox="0 0 350 350" fill="none" xmlns="http://www.w3.org/2000/svg">
<circle cx="175" cy="175" r="175" fill="black"/>
<path d="M124.062 215H66.3125V213.031C68.25 212.906 69.8125 212.688 71 212.375C72.25 212.062 73.1875 211.562 73.8125 210.875C74.5 210.188 74.9688 209.25 75.2188 208.062C75.4688 206.875 75.5938 205.344 75.5938 203.469V155.844C75.5938 153.969 75.4688 152.438 75.2188 151.25C75.0312 150.062 74.5938 149.125 73.9062 148.438C73.2188 147.75 72.25 147.25 71 146.938C69.8125 146.625 68.25 146.406 66.3125 146.281V144.125H123.125L123.312 159.5H120.781C120.281 157.062 119.719 155.125 119.094 153.688C118.469 152.188 117.562 151.031 116.375 150.219C115.25 149.406 113.719 148.875 111.781 148.625C109.906 148.375 107.469 148.25 104.469 148.25H90.0312C88.5938 148.25 87.625 148.469 87.125 148.906C86.6875 149.344 86.4688 150.344 86.4688 151.906V175.625H102.875C105.062 175.625 106.844 175.5 108.219 175.25C109.594 175 110.688 174.531 111.5 173.844C112.375 173.094 113.031 172.062 113.469 170.75C113.906 169.438 114.312 167.688 114.688 165.5H117.219V190.344H114.688C114.312 188.094 113.906 186.312 113.469 185C113.031 183.625 112.406 182.594 111.594 181.906C110.781 181.156 109.688 180.656 108.312 180.406C106.938 180.156 105.125 180.031 102.875 180.031H86.4688V206.469C86.4688 207.531 86.5312 208.312 86.6562 208.812C86.7812 209.312 87 209.688 87.3125 209.938C87.8125 210.25 89 210.531 90.875 210.781C92.8125 210.969 95.0938 211.062 97.7188 211.062H100.719C104.531 211.062 107.719 210.875 110.281 210.5C112.906 210.125 115.125 209.406 116.938 208.344C118.812 207.281 120.438 205.844 121.812 204.031C123.188 202.219 124.531 199.844 125.844 196.906H128.938L124.062 215ZM204.875 146.281C203.625 146.344 202.562 146.5 201.688 146.75C200.875 146.938 200.125 147.406 199.438 148.156C198.75 148.844 198.062 149.844 197.375 151.156C196.75 152.406 195.969 154.094 195.031 156.219L171.312 216.219H169.719L143.375 157.438C142.188 155 141.156 153.062 140.281 151.625C139.469 150.188 138.656 149.094 137.844 148.344C137.094 147.531 136.25 147 135.312 146.75C134.438 146.438 133.344 146.281 132.031 146.281V144.125H160.625V146.281L157.438 146.375C154.125 146.562 152.469 147.688 152.469 149.75C152.469 150.188 152.531 150.688 152.656 151.25C152.781 151.75 153 152.438 153.312 153.312C153.625 154.188 154.062 155.281 154.625 156.594C155.188 157.906 155.938 159.562 156.875 161.562L173 197.75L188.656 158.562C189.406 156.875 189.938 155.344 190.25 153.969C190.625 152.594 190.812 151.469 190.812 150.594C190.812 150.094 190.656 149.562 190.344 149C190.031 148.375 189.625 147.906 189.125 147.594C188.438 147.094 187.688 146.781 186.875 146.656C186.125 146.469 184.844 146.344 183.031 146.281V144.125H204.875V146.281ZM251.75 144.125H279.781V146.281C277.969 146.406 276.438 146.594 275.188 146.844C273.938 147.031 272.75 147.406 271.625 147.969C270.5 148.531 269.312 149.344 268.062 150.406C266.875 151.406 265.375 152.781 263.562 154.531L243.312 174.688L268.156 201.406C270.594 204.031 272.562 206.094 274.062 207.594C275.625 209.094 276.969 210.25 278.094 211.062C279.281 211.875 280.375 212.406 281.375 212.656C282.375 212.844 283.562 212.969 284.938 213.031V215H252.406V213.031L255.312 212.844C258.312 212.781 259.812 212 259.812 210.5C259.812 209.875 259.469 208.969 258.781 207.781C258.094 206.594 257.125 205.219 255.875 203.656C254.688 202.031 253.219 200.25 251.469 198.312C249.781 196.375 247.906 194.375 245.844 192.312L234.5 181.062L231.781 183.312V203.469C231.781 205.406 231.875 206.969 232.062 208.156C232.312 209.344 232.75 210.281 233.375 210.969C234.062 211.656 235.031 212.156 236.281 212.469C237.594 212.719 239.281 212.906 241.344 213.031V215H211.25V213.031C213.375 212.906 215.062 212.688 216.312 212.375C217.562 212.062 218.5 211.531 219.125 210.781C219.812 209.969 220.25 208.906 220.438 207.594C220.688 206.219 220.812 204.406 220.812 202.156V155.844C220.812 153.969 220.688 152.438 220.438 151.25C220.25 150.062 219.812 149.125 219.125 148.438C218.438 147.75 217.469 147.25 216.219 146.938C214.969 146.625 213.312 146.406 211.25 146.281V144.125H241.625V146.281C239.438 146.406 237.688 146.625 236.375 146.938C235.125 147.188 234.156 147.656 233.469 148.344C232.781 149.031 232.312 149.969 232.062 151.156C231.875 152.344 231.781 153.906 231.781 155.844V177.781L250.719 160.531C253.719 157.781 255.844 155.562 257.094 153.875C258.406 152.188 259.062 150.75 259.062 149.562C259.062 148.5 258.719 147.719 258.031 147.219C257.406 146.719 256.25 146.406 254.562 146.281H251.75V144.125Z" fill="white"/>
</svg>
